<mxfile host="app.diagrams.net" modified="2023-04-13T12:47:47.829Z" agent="Mozilla/5.0 (Windows NT 10.0; Win64; x64) AppleWebKit/537.36 (KHTML, like Gecko) Chrome/111.0.0.0 Safari/537.36" etag="W39Y2o-JpTGH7j6Gd9-K" version="21.1.7" type="device">
  <diagram name="Page-1" id="jmzV9hrUy3VjYwiL67zY">
    <mxGraphModel dx="1131" dy="1660" grid="1" gridSize="10" guides="1" tooltips="1" connect="1" arrows="1" fold="1" page="1" pageScale="1" pageWidth="850" pageHeight="1100" math="0" shadow="0">
      <root>
        <mxCell id="0" />
        <mxCell id="1" parent="0" />
        <mxCell id="6e7AexZ8bDhlBcwpjl4Z-26" value="Product" style="swimlane;fontStyle=1;align=center;verticalAlign=top;childLayout=stackLayout;horizontal=1;startSize=26;horizontalStack=0;resizeParent=1;resizeParentMax=0;resizeLast=0;collapsible=1;marginBottom=0;whiteSpace=wrap;html=1;" vertex="1" parent="1">
          <mxGeometry x="30" y="-440" width="160" height="280" as="geometry" />
        </mxCell>
        <mxCell id="6e7AexZ8bDhlBcwpjl4Z-27" value="+ Id: int&lt;br&gt;&lt;br&gt;+ Name: string&lt;br&gt;&lt;br&gt;+ listPrice: double&lt;br style=&quot;border-color: var(--border-color);&quot;&gt;&lt;br style=&quot;border-color: var(--border-color);&quot;&gt;+ Price: double&lt;br style=&quot;border-color: var(--border-color);&quot;&gt;&lt;br style=&quot;border-color: var(--border-color);&quot;&gt;+ ImageUrl : string&lt;br style=&quot;border-color: var(--border-color);&quot;&gt;&lt;br style=&quot;border-color: var(--border-color);&quot;&gt;+ CategoryId: int&lt;br style=&quot;border-color: var(--border-color);&quot;&gt;&lt;br style=&quot;border-color: var(--border-color);&quot;&gt;+BeltTypeId : int" style="text;strokeColor=none;fillColor=none;align=left;verticalAlign=top;spacingLeft=4;spacingRight=4;overflow=hidden;rotatable=0;points=[[0,0.5],[1,0.5]];portConstraint=eastwest;whiteSpace=wrap;html=1;" vertex="1" parent="6e7AexZ8bDhlBcwpjl4Z-26">
          <mxGeometry y="26" width="160" height="194" as="geometry" />
        </mxCell>
        <mxCell id="6e7AexZ8bDhlBcwpjl4Z-62" value="" style="edgeStyle=orthogonalEdgeStyle;fontSize=12;html=1;endArrow=ERzeroToMany;endFill=1;rounded=0;entryX=0.5;entryY=0;entryDx=0;entryDy=0;" edge="1" parent="6e7AexZ8bDhlBcwpjl4Z-26" target="6e7AexZ8bDhlBcwpjl4Z-46">
          <mxGeometry width="100" height="100" relative="1" as="geometry">
            <mxPoint x="60" y="280" as="sourcePoint" />
            <mxPoint x="160" y="180" as="targetPoint" />
          </mxGeometry>
        </mxCell>
        <mxCell id="6e7AexZ8bDhlBcwpjl4Z-28" value="" style="line;strokeWidth=1;fillColor=none;align=left;verticalAlign=middle;spacingTop=-1;spacingLeft=3;spacingRight=3;rotatable=0;labelPosition=right;points=[];portConstraint=eastwest;strokeColor=inherit;" vertex="1" parent="6e7AexZ8bDhlBcwpjl4Z-26">
          <mxGeometry y="220" width="160" height="8" as="geometry" />
        </mxCell>
        <mxCell id="6e7AexZ8bDhlBcwpjl4Z-29" value="+ Upsert()&lt;br&gt;+ GetAll()&lt;br&gt;+ Delete()" style="text;strokeColor=none;fillColor=none;align=left;verticalAlign=top;spacingLeft=4;spacingRight=4;overflow=hidden;rotatable=0;points=[[0,0.5],[1,0.5]];portConstraint=eastwest;whiteSpace=wrap;html=1;" vertex="1" parent="6e7AexZ8bDhlBcwpjl4Z-26">
          <mxGeometry y="228" width="160" height="52" as="geometry" />
        </mxCell>
        <mxCell id="6e7AexZ8bDhlBcwpjl4Z-34" value="Category" style="swimlane;fontStyle=1;align=center;verticalAlign=top;childLayout=stackLayout;horizontal=1;startSize=26;horizontalStack=0;resizeParent=1;resizeParentMax=0;resizeLast=0;collapsible=1;marginBottom=0;whiteSpace=wrap;html=1;" vertex="1" parent="1">
          <mxGeometry x="310" y="-440" width="190" height="200" as="geometry" />
        </mxCell>
        <mxCell id="6e7AexZ8bDhlBcwpjl4Z-35" value="+ Id: int&lt;br&gt;+ Name : string&lt;br&gt;+ DisplayOrder : int&lt;br style=&quot;border-color: var(--border-color);&quot;&gt;&lt;br style=&quot;border-color: var(--border-color);&quot;&gt;+ CreatedDateTime : DateTime" style="text;strokeColor=none;fillColor=none;align=left;verticalAlign=top;spacingLeft=4;spacingRight=4;overflow=hidden;rotatable=0;points=[[0,0.5],[1,0.5]];portConstraint=eastwest;whiteSpace=wrap;html=1;" vertex="1" parent="6e7AexZ8bDhlBcwpjl4Z-34">
          <mxGeometry y="26" width="190" height="94" as="geometry" />
        </mxCell>
        <mxCell id="6e7AexZ8bDhlBcwpjl4Z-36" value="" style="line;strokeWidth=1;fillColor=none;align=left;verticalAlign=middle;spacingTop=-1;spacingLeft=3;spacingRight=3;rotatable=0;labelPosition=right;points=[];portConstraint=eastwest;strokeColor=inherit;" vertex="1" parent="6e7AexZ8bDhlBcwpjl4Z-34">
          <mxGeometry y="120" width="190" height="8" as="geometry" />
        </mxCell>
        <mxCell id="6e7AexZ8bDhlBcwpjl4Z-37" value="+ Index()&lt;br&gt;+ Create()&lt;br&gt;+ Update()&lt;br&gt;+ Delete()" style="text;strokeColor=none;fillColor=none;align=left;verticalAlign=top;spacingLeft=4;spacingRight=4;overflow=hidden;rotatable=0;points=[[0,0.5],[1,0.5]];portConstraint=eastwest;whiteSpace=wrap;html=1;" vertex="1" parent="6e7AexZ8bDhlBcwpjl4Z-34">
          <mxGeometry y="128" width="190" height="72" as="geometry" />
        </mxCell>
        <mxCell id="6e7AexZ8bDhlBcwpjl4Z-38" value="BeltType" style="swimlane;fontStyle=1;align=center;verticalAlign=top;childLayout=stackLayout;horizontal=1;startSize=26;horizontalStack=0;resizeParent=1;resizeParentMax=0;resizeLast=0;collapsible=1;marginBottom=0;whiteSpace=wrap;html=1;" vertex="1" parent="1">
          <mxGeometry x="570" y="-260" width="160" height="140" as="geometry" />
        </mxCell>
        <mxCell id="6e7AexZ8bDhlBcwpjl4Z-39" value="+ Id : int&lt;br&gt;+&amp;nbsp;Name : string" style="text;strokeColor=none;fillColor=none;align=left;verticalAlign=top;spacingLeft=4;spacingRight=4;overflow=hidden;rotatable=0;points=[[0,0.5],[1,0.5]];portConstraint=eastwest;whiteSpace=wrap;html=1;" vertex="1" parent="6e7AexZ8bDhlBcwpjl4Z-38">
          <mxGeometry y="26" width="160" height="34" as="geometry" />
        </mxCell>
        <mxCell id="6e7AexZ8bDhlBcwpjl4Z-40" value="" style="line;strokeWidth=1;fillColor=none;align=left;verticalAlign=middle;spacingTop=-1;spacingLeft=3;spacingRight=3;rotatable=0;labelPosition=right;points=[];portConstraint=eastwest;strokeColor=inherit;" vertex="1" parent="6e7AexZ8bDhlBcwpjl4Z-38">
          <mxGeometry y="60" width="160" height="8" as="geometry" />
        </mxCell>
        <mxCell id="6e7AexZ8bDhlBcwpjl4Z-41" value="+ Index()&lt;br style=&quot;border-color: var(--border-color);&quot;&gt;+ Create()&lt;br style=&quot;border-color: var(--border-color);&quot;&gt;+ Update()&lt;br style=&quot;border-color: var(--border-color);&quot;&gt;+ Delete()" style="text;strokeColor=none;fillColor=none;align=left;verticalAlign=top;spacingLeft=4;spacingRight=4;overflow=hidden;rotatable=0;points=[[0,0.5],[1,0.5]];portConstraint=eastwest;whiteSpace=wrap;html=1;" vertex="1" parent="6e7AexZ8bDhlBcwpjl4Z-38">
          <mxGeometry y="68" width="160" height="72" as="geometry" />
        </mxCell>
        <mxCell id="6e7AexZ8bDhlBcwpjl4Z-46" value="OrderDetails" style="swimlane;fontStyle=1;align=center;verticalAlign=top;childLayout=stackLayout;horizontal=1;startSize=26;horizontalStack=0;resizeParent=1;resizeParentMax=0;resizeLast=0;collapsible=1;marginBottom=0;whiteSpace=wrap;html=1;" vertex="1" parent="1">
          <mxGeometry x="70" y="-100" width="160" height="250" as="geometry" />
        </mxCell>
        <mxCell id="6e7AexZ8bDhlBcwpjl4Z-47" value="+ Id : int&lt;br&gt;+ OrderId : int&lt;br&gt;+ ProductId : int&lt;br style=&quot;border-color: var(--border-color);&quot;&gt;+ Count : int&lt;br style=&quot;border-color: var(--border-color);&quot;&gt;+ Price : double" style="text;strokeColor=none;fillColor=none;align=left;verticalAlign=top;spacingLeft=4;spacingRight=4;overflow=hidden;rotatable=0;points=[[0,0.5],[1,0.5]];portConstraint=eastwest;whiteSpace=wrap;html=1;" vertex="1" parent="6e7AexZ8bDhlBcwpjl4Z-46">
          <mxGeometry y="26" width="160" height="84" as="geometry" />
        </mxCell>
        <mxCell id="6e7AexZ8bDhlBcwpjl4Z-48" value="" style="line;strokeWidth=1;fillColor=none;align=left;verticalAlign=middle;spacingTop=-1;spacingLeft=3;spacingRight=3;rotatable=0;labelPosition=right;points=[];portConstraint=eastwest;strokeColor=inherit;" vertex="1" parent="6e7AexZ8bDhlBcwpjl4Z-46">
          <mxGeometry y="110" width="160" height="8" as="geometry" />
        </mxCell>
        <mxCell id="6e7AexZ8bDhlBcwpjl4Z-49" value="+ Index()&lt;br&gt;+ Details()&lt;br&gt;+ Details_PAY_NOW()&lt;br&gt;+ PaymentConfirmation()&lt;br&gt;+ UpdateOrderDetail()&lt;br&gt;+ StartProcessing()&lt;br&gt;+ ShipOrder()&lt;br&gt;+ CancelOrder()" style="text;strokeColor=none;fillColor=none;align=left;verticalAlign=top;spacingLeft=4;spacingRight=4;overflow=hidden;rotatable=0;points=[[0,0.5],[1,0.5]];portConstraint=eastwest;whiteSpace=wrap;html=1;" vertex="1" parent="6e7AexZ8bDhlBcwpjl4Z-46">
          <mxGeometry y="118" width="160" height="132" as="geometry" />
        </mxCell>
        <mxCell id="6e7AexZ8bDhlBcwpjl4Z-50" value="ShoppingCart" style="swimlane;fontStyle=1;align=center;verticalAlign=top;childLayout=stackLayout;horizontal=1;startSize=26;horizontalStack=0;resizeParent=1;resizeParentMax=0;resizeLast=0;collapsible=1;marginBottom=0;whiteSpace=wrap;html=1;" vertex="1" parent="1">
          <mxGeometry x="370" y="-60" width="180" height="230" as="geometry" />
        </mxCell>
        <mxCell id="6e7AexZ8bDhlBcwpjl4Z-51" value="+ Id : int&lt;br&gt;+ ProductId : int&lt;br&gt;+ ApplicationUserId : string&lt;br&gt;Price : double" style="text;strokeColor=none;fillColor=none;align=left;verticalAlign=top;spacingLeft=4;spacingRight=4;overflow=hidden;rotatable=0;points=[[0,0.5],[1,0.5]];portConstraint=eastwest;whiteSpace=wrap;html=1;" vertex="1" parent="6e7AexZ8bDhlBcwpjl4Z-50">
          <mxGeometry y="26" width="180" height="74" as="geometry" />
        </mxCell>
        <mxCell id="6e7AexZ8bDhlBcwpjl4Z-52" value="" style="line;strokeWidth=1;fillColor=none;align=left;verticalAlign=middle;spacingTop=-1;spacingLeft=3;spacingRight=3;rotatable=0;labelPosition=right;points=[];portConstraint=eastwest;strokeColor=inherit;" vertex="1" parent="6e7AexZ8bDhlBcwpjl4Z-50">
          <mxGeometry y="100" width="180" height="8" as="geometry" />
        </mxCell>
        <mxCell id="6e7AexZ8bDhlBcwpjl4Z-53" value="+ index()&lt;br&gt;+ Summary()&lt;br&gt;+ orderConfirmation()&lt;br&gt;+ Plus()&lt;br&gt;+ Minus()&lt;br&gt;+ remove()&lt;br&gt;+ GetPriceBasedOnQuantity()" style="text;strokeColor=none;fillColor=none;align=left;verticalAlign=top;spacingLeft=4;spacingRight=4;overflow=hidden;rotatable=0;points=[[0,0.5],[1,0.5]];portConstraint=eastwest;whiteSpace=wrap;html=1;" vertex="1" parent="6e7AexZ8bDhlBcwpjl4Z-50">
          <mxGeometry y="108" width="180" height="122" as="geometry" />
        </mxCell>
        <mxCell id="6e7AexZ8bDhlBcwpjl4Z-59" value="" style="edgeStyle=entityRelationEdgeStyle;fontSize=12;html=1;endArrow=ERoneToMany;rounded=0;exitX=-0.011;exitY=0.755;exitDx=0;exitDy=0;exitPerimeter=0;" edge="1" parent="1" source="6e7AexZ8bDhlBcwpjl4Z-35" target="6e7AexZ8bDhlBcwpjl4Z-27">
          <mxGeometry width="100" height="100" relative="1" as="geometry">
            <mxPoint x="190" y="-280" as="sourcePoint" />
            <mxPoint x="290" y="-380" as="targetPoint" />
          </mxGeometry>
        </mxCell>
        <mxCell id="6e7AexZ8bDhlBcwpjl4Z-60" value="" style="edgeStyle=orthogonalEdgeStyle;fontSize=12;html=1;endArrow=ERmandOne;rounded=0;entryX=0.5;entryY=0;entryDx=0;entryDy=0;" edge="1" parent="1">
          <mxGeometry width="100" height="100" relative="1" as="geometry">
            <mxPoint x="500" y="-320" as="sourcePoint" />
            <mxPoint x="650" y="-260" as="targetPoint" />
          </mxGeometry>
        </mxCell>
        <mxCell id="6e7AexZ8bDhlBcwpjl4Z-64" value="" style="edgeStyle=orthogonalEdgeStyle;fontSize=12;html=1;endArrow=ERmany;startArrow=ERmany;rounded=0;entryX=0.409;entryY=0;entryDx=0;entryDy=0;entryPerimeter=0;" edge="1" parent="1" target="6e7AexZ8bDhlBcwpjl4Z-50">
          <mxGeometry width="100" height="100" relative="1" as="geometry">
            <mxPoint x="190" y="-180" as="sourcePoint" />
            <mxPoint x="450" y="-70" as="targetPoint" />
          </mxGeometry>
        </mxCell>
        <mxCell id="6e7AexZ8bDhlBcwpjl4Z-67" value="Company" style="swimlane;fontStyle=1;align=center;verticalAlign=top;childLayout=stackLayout;horizontal=1;startSize=26;horizontalStack=0;resizeParent=1;resizeParentMax=0;resizeLast=0;collapsible=1;marginBottom=0;whiteSpace=wrap;html=1;" vertex="1" parent="1">
          <mxGeometry x="90" y="220" width="200" height="200" as="geometry" />
        </mxCell>
        <mxCell id="6e7AexZ8bDhlBcwpjl4Z-68" value="+ Id : int&lt;br&gt;+ Name : string&lt;br&gt;+ StreetAddress : string?&lt;br&gt;+ City : string&lt;br&gt;+ State : string?&lt;br&gt;+ PostalCode : string?&lt;br&gt;+ PhoneNumber : string?" style="text;strokeColor=none;fillColor=none;align=left;verticalAlign=top;spacingLeft=4;spacingRight=4;overflow=hidden;rotatable=0;points=[[0,0.5],[1,0.5]];portConstraint=eastwest;whiteSpace=wrap;html=1;" vertex="1" parent="6e7AexZ8bDhlBcwpjl4Z-67">
          <mxGeometry y="26" width="200" height="114" as="geometry" />
        </mxCell>
        <mxCell id="6e7AexZ8bDhlBcwpjl4Z-69" value="" style="line;strokeWidth=1;fillColor=none;align=left;verticalAlign=middle;spacingTop=-1;spacingLeft=3;spacingRight=3;rotatable=0;labelPosition=right;points=[];portConstraint=eastwest;strokeColor=inherit;" vertex="1" parent="6e7AexZ8bDhlBcwpjl4Z-67">
          <mxGeometry y="140" width="200" height="8" as="geometry" />
        </mxCell>
        <mxCell id="6e7AexZ8bDhlBcwpjl4Z-70" value="+ Upsert()&lt;br&gt;+ Delete()&lt;br&gt;+ GetAll()" style="text;strokeColor=none;fillColor=none;align=left;verticalAlign=top;spacingLeft=4;spacingRight=4;overflow=hidden;rotatable=0;points=[[0,0.5],[1,0.5]];portConstraint=eastwest;whiteSpace=wrap;html=1;" vertex="1" parent="6e7AexZ8bDhlBcwpjl4Z-67">
          <mxGeometry y="148" width="200" height="52" as="geometry" />
        </mxCell>
        <mxCell id="6e7AexZ8bDhlBcwpjl4Z-71" value="" style="fontSize=12;html=1;endArrow=ERoneToMany;rounded=0;entryX=-0.001;entryY=0.647;entryDx=0;entryDy=0;entryPerimeter=0;edgeStyle=orthogonalEdgeStyle;" edge="1" parent="1" target="6e7AexZ8bDhlBcwpjl4Z-27">
          <mxGeometry width="100" height="100" relative="1" as="geometry">
            <mxPoint x="90" y="310" as="sourcePoint" />
            <mxPoint x="20" y="-290" as="targetPoint" />
            <Array as="points">
              <mxPoint x="20" y="310" />
              <mxPoint x="20" y="-288" />
            </Array>
          </mxGeometry>
        </mxCell>
      </root>
    </mxGraphModel>
  </diagram>
</mxfile>
